<svg width="140" height="50" viewBox="0 0 140 50" fill="none" xmlns="http://www.w3.org/2000/svg">
<g id="Frame 35">
<rect width="140" height="50" rx="25" fill="#FFB800"/>
<g id="Group 114">
<g id="Group 106">
<path id="Vector" d="M89.6932 21H86.0409C85.8261 21 85.6113 21.2105 85.5039 21.4211L84 30.6842C84 30.8947 84.1074 31 84.3223 31H86.2558C86.4706 31 86.578 30.8947 86.578 30.6842L87.0077 28.0526C87.0077 27.8421 87.2225 27.6316 87.5448 27.6316H88.7264C91.197 27.6316 92.5935 26.4737 92.9157 24.1579C93.1306 23.2105 92.9157 22.3684 92.486 21.8421C91.8415 21.3158 90.8748 21 89.6932 21ZM90.1228 24.4737C89.908 25.7368 88.9412 25.7368 87.9745 25.7368H87.33L87.7596 23.3158C87.7596 23.2105 87.8671 23.1053 88.0819 23.1053H88.2967C88.9412 23.1053 89.5858 23.1053 89.908 23.5263C90.1228 23.6316 90.1228 23.9474 90.1228 24.4737Z" fill="#139AD6"/>
<g id="Group">
<path id="Vector_2" d="M61.6567 20.6H57.771C57.5425 20.6 57.3139 20.8285 57.1996 21.0571L55.5996 31.1142C55.5996 31.3428 55.7139 31.4571 55.9425 31.4571H57.771C57.9996 31.4571 58.2282 31.2285 58.3425 30.9999L58.7996 28.2571C58.7996 28.0285 59.0282 27.8 59.371 27.8H60.6282C63.2567 27.8 64.7424 26.5428 65.0853 24.0285C65.3139 23 65.0853 22.0857 64.6282 21.5143C63.9424 20.9428 63.0282 20.6 61.6567 20.6ZM62.1139 24.3714C61.8853 25.7428 60.8567 25.7428 59.8282 25.7428H59.2567L59.7139 23.1143C59.7139 23 59.8282 22.8857 60.0567 22.8857H60.2853C60.971 22.8857 61.6567 22.8857 61.9996 23.3428C62.1139 23.4571 62.2282 23.8 62.1139 24.3714Z" fill="#263B80"/>
<path id="Vector_3" d="M73.4282 24.2571H71.5996C71.4854 24.2571 71.2568 24.3714 71.2568 24.4857L71.1425 25.0571L71.0282 24.8286C70.5711 24.2571 69.7711 24.0286 68.8568 24.0286C66.7997 24.0286 64.9711 25.6286 64.6282 27.8C64.3997 28.9428 64.7425 29.9714 65.3139 30.6571C65.8854 31.3428 66.6854 31.5714 67.7139 31.5714C69.4282 31.5714 70.3425 30.5428 70.3425 30.5428L70.2282 31.1143C70.2282 31.3428 70.3425 31.4571 70.5711 31.4571H72.2854C72.5139 31.4571 72.7425 31.2285 72.8568 31L73.8854 24.6C73.7711 24.4857 73.5425 24.2571 73.4282 24.2571ZM70.7996 27.9143C70.5711 28.9428 69.7711 29.7428 68.6282 29.7428C68.0568 29.7428 67.5997 29.5143 67.3711 29.2857C67.1425 28.9428 67.0282 28.4857 67.0282 27.9143C67.1425 26.8857 68.0568 26.0857 69.0854 26.0857C69.6568 26.0857 69.9996 26.3143 70.3425 26.5428C70.6854 26.8857 70.7996 27.4571 70.7996 27.9143Z" fill="#263B80"/>
</g>
<path id="Vector_4" d="M101.51 24.2424H99.5498C99.4273 24.2424 99.1823 24.3636 99.1823 24.4848L99.0598 25.0909L98.9373 24.8485C98.4472 24.2424 97.5897 24 96.6096 24C94.4044 24 92.4443 25.697 92.0767 28C91.8317 29.2121 92.1993 30.303 92.8118 31.0303C93.4243 31.7576 94.2819 32 95.3845 32C97.2221 32 98.2022 30.9091 98.2022 30.9091L98.0797 31.5151C98.0797 31.7576 98.2022 31.8788 98.4472 31.8788H100.285C100.53 31.8788 100.775 31.6364 100.897 31.3939L102 24.6061C101.877 24.4848 101.755 24.2424 101.51 24.2424ZM98.6922 28.1212C98.4472 29.2121 97.5897 30.0606 96.3646 30.0606C95.752 30.0606 95.262 29.8182 95.017 29.5758C94.7719 29.2121 94.6494 28.7273 94.6494 28.1212C94.772 27.0303 95.752 26.1818 96.8546 26.1818C97.4672 26.1818 97.8347 26.4242 98.2022 26.6667C98.6922 27.0303 98.8148 27.6364 98.6922 28.1212Z" fill="#139AD6"/>
<path id="Vector_5" d="M83.7137 24H81.7899C81.5636 24 81.4504 24.1149 81.3372 24.2299L78.8476 28.1379L77.716 24.4598C77.6028 24.2299 77.4896 24.1149 77.1501 24.1149H75.3395C75.1132 24.1149 75 24.3448 75 24.5747L77.037 30.6667L75.1132 33.4253C75 33.6552 75.1132 34 75.3395 34H77.1501C77.3765 34 77.4896 33.8851 77.6028 33.7701L83.8269 24.6897C84.1664 24.3448 83.94 24 83.7137 24Z" fill="#263B80"/>
<path id="Vector_6" d="M103.556 21.2759L102 31.6541C102 31.8847 102.111 32 102.333 32H103.889C104.111 32 104.333 31.7694 104.444 31.5387L106 21.3912C106 21.1606 105.889 21.0452 105.667 21.0452H103.889C103.778 20.9299 103.667 21.0452 103.556 21.2759Z" fill="#139AD6"/>
<path id="Vector_7" d="M47.0638 17.3521C46.2686 16.4507 44.7918 16 42.7471 16H37.0672C36.7264 16 36.3856 16.338 36.272 16.6761L34 31.4366C34 31.7746 34.2272 32 34.4544 32H37.9759L38.8847 26.4789V26.7042C38.9983 26.3662 39.3391 26.0282 39.6799 26.0282H41.3839C44.6782 26.0282 47.1774 24.6761 47.9726 20.9577C47.9726 20.8451 47.9726 20.7324 47.9726 20.6197C47.859 20.6197 47.859 20.6197 47.9726 20.6197C48.0862 19.1549 47.859 18.2535 47.0638 17.3521Z" fill="#263B80"/>
<path id="Vector_8" d="M47.712 20C47.712 20.1176 47.712 20.2353 47.712 20.3529C46.9566 24.3529 44.5826 25.6471 41.4531 25.6471H39.8345C39.5108 25.6471 39.187 26 39.0791 26.3529L38 33.5294C38 33.7647 38.1079 34 38.4316 34H41.2373C41.5611 34 41.8848 33.7647 41.8848 33.4118V33.2941L42.4243 29.6471V29.4118C42.4243 29.0588 42.7481 28.8235 43.0718 28.8235H43.5034C46.2012 28.8235 48.3594 27.6471 48.899 24.1176C49.1148 22.7059 49.0069 21.4118 48.3594 20.5882C48.2515 20.3529 48.0357 20.1176 47.712 20Z" fill="#139AD6"/>
<path id="Vector_9" d="M47 20.35C46.8889 20.35 46.7778 20.2333 46.6667 20.2333C46.5556 20.2333 46.4444 20.2333 46.3333 20.1167C45.8889 20 45.4444 20 44.8889 20H40.5556C40.4444 20 40.3333 20 40.2222 20.1167C40 20.2333 39.8889 20.4667 39.8889 20.7L39 26.7667V27C39.1111 26.65 39.4444 26.3 39.7778 26.3H41.4444C44.6667 26.3 47.1111 24.9 47.8889 21.05C47.8889 20.9333 47.8889 20.8167 48 20.7C47.7778 20.5833 47.6667 20.4667 47.4444 20.4667C47.1111 20.35 47.1111 20.35 47 20.35Z" fill="#232C65"/>
</g>
</g>
</g>
</svg>
